<svg width="367" height="80" viewBox="0 0 367 80" fill="none" xmlns="http://www.w3.org/2000/svg">
<path d="M131 53.5249C125.472 67.0426 112.554 76.5249 97.5 76.5249C82.4457 76.5249 69.5277 67.0426 64 53.5249" stroke="url(#paint0_linear_1502_9)" stroke-width="5.05" stroke-linecap="round"/>
<path d="M131 25.5249C125.472 12.0072 112.554 2.5249 97.5 2.5249C82.4457 2.5249 69.5277 12.0072 64 25.5249" stroke="url(#paint1_linear_1502_9)" stroke-width="5.05" stroke-linecap="round"/>
<path d="M6.55259 48.403C5.56263 48.403 4.6591 48.248 3.84199 47.9379C3.04059 47.6124 2.35705 47.1473 1.79136 46.5427C1.22567 45.9382 0.785683 45.2095 0.47141 44.3569C0.157137 43.4888 0 42.5044 0 41.4038V31.3816H3.18202V41.5898C3.18202 42.1479 3.25273 42.6594 3.39415 43.1245C3.53557 43.5896 3.74771 43.9926 4.03055 44.3337C4.3134 44.6747 4.66696 44.946 5.09122 45.1475C5.51549 45.3336 6.00262 45.4266 6.55259 45.4266C7.11829 45.4266 7.61327 45.3336 8.03753 45.1475C8.4618 44.946 8.81536 44.6747 9.09821 44.3337C9.38105 43.9926 9.59319 43.5896 9.73461 43.1245C9.87603 42.6594 9.94674 42.1479 9.94674 41.5898V31.3816H13.1288V41.4038C13.1288 42.4424 12.9716 43.3958 12.6573 44.2639C12.3588 45.1165 11.9188 45.8529 11.3374 46.473C10.7717 47.0776 10.0803 47.5504 9.2632 47.8914C8.4618 48.2325 7.55827 48.403 6.55259 48.403Z" fill="#32333D"/>
<path d="M16.1445 31.3816H22.2964C23.1449 31.3816 23.9149 31.5134 24.6063 31.7769C25.2977 32.0405 25.887 32.4048 26.3741 32.8698C26.8769 33.3349 27.2619 33.893 27.529 34.5441C27.7962 35.1796 27.9297 35.8772 27.9297 36.6369C27.9297 37.1949 27.8354 37.722 27.6469 38.2181C27.4583 38.6986 27.199 39.1405 26.8691 39.5435C26.5391 39.9311 26.1541 40.2799 25.7141 40.5899C25.2741 40.8844 24.8106 41.117 24.3235 41.2875L24.2999 41.4503L28.8254 47.8449V48.0309H25.172L20.8114 41.7758H19.3265V48.0309H16.1445V31.3816ZM22.2728 38.8924C22.9956 38.8924 23.5849 38.6754 24.0406 38.2413C24.512 37.8073 24.7477 37.2569 24.7477 36.5903C24.7477 36.2958 24.6927 36.009 24.5827 35.73C24.4884 35.4509 24.3392 35.2029 24.1349 34.9859C23.9306 34.7688 23.6713 34.5983 23.3571 34.4743C23.0585 34.3348 22.7128 34.265 22.32 34.265H19.3265V38.8924H22.2728Z" fill="#32333D"/>
<path d="M45.3366 44.388C44.6273 45.6229 43.6676 46.6211 42.4576 47.3826C41.2684 48.1441 39.808 48.5249 38.0765 48.5249C36.9082 48.5249 35.8233 48.3294 34.8219 47.9383C33.8414 47.5267 32.986 46.9607 32.2558 46.2403C31.5256 45.52 30.9519 44.6761 30.5347 43.7088C30.1383 42.7209 29.9401 41.6403 29.9401 40.4672C29.9401 39.3764 30.1383 38.3473 30.5347 37.3799C30.9311 36.392 31.4839 35.5379 32.1932 34.8175C32.9026 34.0766 33.7371 33.49 34.6967 33.0578C35.6773 32.6256 36.7517 32.4095 37.92 32.4095C39.1509 32.4095 40.2462 32.6153 41.2058 33.0269C42.1655 33.418 42.9687 33.9737 43.6154 34.694C44.2622 35.3938 44.7524 36.2274 45.0862 37.1947C45.42 38.162 45.5869 39.2117 45.5869 40.3437C45.5869 40.4878 45.5869 40.6113 45.5869 40.7142C45.5661 40.8377 45.5556 40.9509 45.5556 41.0538C45.5348 41.1567 45.5243 41.2699 45.5243 41.3934H33.977C34.0604 42.0108 34.2273 42.5459 34.4777 42.9987C34.7489 43.4309 35.0723 43.8014 35.4478 44.1101C35.8442 44.3983 36.2719 44.6144 36.7308 44.7585C37.1898 44.8819 37.6592 44.9437 38.139 44.9437C39.0778 44.9437 39.8498 44.7379 40.4548 44.3262C41.0806 43.894 41.5709 43.3589 41.9256 42.7209L45.3366 44.388ZM41.6126 38.5222C41.5918 38.2547 41.4979 37.9562 41.331 37.6269C41.185 37.2976 40.9555 36.9889 40.6425 36.7007C40.3505 36.4126 39.9749 36.1759 39.516 35.9907C39.0779 35.8054 38.5459 35.7128 37.92 35.7128C37.0438 35.7128 36.2719 35.9598 35.6043 36.4538C34.9367 36.9477 34.4673 37.6372 34.196 38.5222H41.6126Z" fill="#32333D"/>
<path d="M48.2051 48.0309V25.9262H52.3046V48.0309H48.2051Z" fill="#32333D"/>
<path d="M62.9219 32.4095C64.1111 32.4095 65.1959 32.6153 66.1765 33.0269C67.1779 33.418 68.0332 33.9737 68.7425 34.694C69.4727 35.3938 70.036 36.2377 70.4324 37.2256C70.8496 38.2135 71.0583 39.294 71.0583 40.4672C71.0583 41.6403 70.8496 42.7209 70.4324 43.7088C70.036 44.6967 69.4727 45.5509 68.7425 46.2712C68.0332 46.971 67.1779 47.5267 66.1765 47.9383C65.1959 48.3294 64.1111 48.5249 62.9219 48.5249C61.7328 48.5249 60.6375 48.3294 59.6361 47.9383C58.6555 47.5267 57.8002 46.971 57.07 46.2712C56.3607 45.5509 55.7974 44.6967 55.3801 43.7088C54.9838 42.7209 54.7856 41.6403 54.7856 40.4672C54.7856 39.294 54.9838 38.2135 55.3801 37.2256C55.7974 36.2377 56.3607 35.3938 57.07 34.694C57.8002 33.9737 58.6555 33.418 59.6361 33.0269C60.6375 32.6153 61.7328 32.4095 62.9219 32.4095ZM62.9219 44.7893C63.4435 44.7893 63.9442 44.6967 64.424 44.5115C64.9247 44.3057 65.3628 44.0175 65.7383 43.6471C66.1139 43.2766 66.4059 42.8238 66.6146 42.2887C66.8441 41.7535 66.9588 41.1464 66.9588 40.4672C66.9588 39.788 66.8441 39.1808 66.6146 38.6457C66.4059 38.1106 66.1139 37.6578 65.7383 37.2873C65.3628 36.9168 64.9247 36.639 64.424 36.4538C63.9442 36.2479 63.4435 36.145 62.9219 36.145C62.3795 36.145 61.8684 36.2479 61.3885 36.4538C60.9087 36.639 60.481 36.9168 60.1055 37.2873C59.73 37.6578 59.4275 38.1106 59.198 38.6457C58.9893 39.1808 58.885 39.788 58.885 40.4672C58.885 41.1464 58.9893 41.7535 59.198 42.2887C59.4275 42.8238 59.73 43.2766 60.1055 43.6471C60.481 44.0175 60.9087 44.3057 61.3885 44.5115C61.8684 44.6967 62.3795 44.7893 62.9219 44.7893Z" fill="#32333D"/>
<path d="M88.2439 44.1719C87.5763 45.4479 86.6375 46.4976 85.4274 47.3209C84.2383 48.1236 82.7466 48.5249 80.9524 48.5249C79.7633 48.5249 78.668 48.3294 77.6666 47.9383C76.6861 47.5267 75.8307 46.9607 75.1005 46.2403C74.3912 45.52 73.8279 44.6761 73.4107 43.7088C73.0143 42.7209 72.8161 41.6403 72.8161 40.4672C72.8161 39.294 73.0143 38.2135 73.4107 37.2256C73.8279 36.2377 74.3912 35.3938 75.1005 34.694C75.8307 33.9737 76.6861 33.418 77.6666 33.0269C78.668 32.6153 79.7633 32.4095 80.9524 32.4095C82.7258 32.4095 84.2174 32.8108 85.4274 33.6135C86.6375 34.4162 87.5241 35.4556 88.0874 36.7316L84.3322 38.2752C83.9775 37.5755 83.5185 37.0506 82.9552 36.7007C82.4128 36.3303 81.7244 36.145 80.8899 36.145C80.3474 36.145 79.8363 36.2479 79.3565 36.4538C78.8766 36.6596 78.449 36.9477 78.0734 37.3182C77.7188 37.6887 77.4371 38.1415 77.2285 38.6766C77.0199 39.2117 76.9156 39.8086 76.9156 40.4672C76.9156 41.1258 77.0199 41.7227 77.2285 42.2578C77.4371 42.7929 77.7188 43.2457 78.0734 43.6162C78.449 43.9866 78.8766 44.2748 79.3565 44.4806C79.8363 44.6864 80.3474 44.7893 80.8899 44.7893C81.7452 44.7893 82.465 44.6041 83.0491 44.2336C83.6541 43.8426 84.134 43.2869 84.4886 42.5665L88.2439 44.1719Z" fill="#32333D"/>
<path d="M100.043 46.4256H99.7925C99.3126 47.0019 98.7285 47.4958 98.04 47.9075C97.3724 48.3191 96.5066 48.5249 95.4426 48.5249C94.6499 48.5249 93.8988 48.3911 93.1895 48.1236C92.501 47.8766 91.896 47.5267 91.3745 47.0739C90.8529 46.6211 90.4461 46.0757 90.154 45.4377C89.8619 44.7996 89.7159 44.0998 89.7159 43.3383C89.7159 42.5562 89.8724 41.8564 90.1853 41.239C90.4982 40.601 90.9363 40.0556 91.4996 39.6028C92.0629 39.15 92.7201 38.8104 93.4711 38.584C94.243 38.337 95.0775 38.2135 95.9746 38.2135C96.976 38.2135 97.8001 38.2958 98.4468 38.4605C99.0936 38.6045 99.6256 38.7589 100.043 38.9236V38.4605C100.043 37.6578 99.7194 36.9992 99.0727 36.4846C98.426 35.9495 97.6228 35.682 96.6631 35.682C95.2444 35.682 94.0449 36.2685 93.0643 37.4417L90.0914 35.435C91.7187 33.418 93.9405 32.4095 96.757 32.4095C99.1353 32.4095 100.95 32.9652 102.202 34.0766C103.454 35.1674 104.08 36.7934 104.08 38.9544V48.0309H100.043V46.4256ZM100.043 41.8873C99.563 41.6609 99.0623 41.486 98.5407 41.3625C98.04 41.2184 97.4872 41.1464 96.8821 41.1464C95.9016 41.1464 95.1401 41.3625 94.5977 41.7947C94.0761 42.2063 93.8154 42.7209 93.8154 43.3383C93.8154 43.9558 94.0657 44.4497 94.5664 44.8202C95.088 45.1907 95.6826 45.3759 96.3502 45.3759C96.8926 45.3759 97.3933 45.2833 97.8522 45.0981C98.3112 44.8922 98.6972 44.635 99.0101 44.3262C99.3439 43.9969 99.5943 43.6265 99.7612 43.2148C99.9489 42.7826 100.043 42.3401 100.043 41.8873Z" fill="#32333D"/>
<path d="M108.723 36.3611H106.032V32.9034H108.723V28.2726H112.823V32.9034H116.578V36.3611H112.823V42.2269C112.823 42.5768 112.854 42.9061 112.917 43.2148C113 43.503 113.146 43.75 113.355 43.9558C113.647 44.2851 114.064 44.4497 114.607 44.4497C114.961 44.4497 115.243 44.4189 115.452 44.3571C115.66 44.2748 115.858 44.1719 116.046 44.0484L117.204 47.5987C116.724 47.8251 116.203 47.9898 115.639 48.0927C115.097 48.2162 114.492 48.2779 113.824 48.2779C113.052 48.2779 112.353 48.1647 111.728 47.9383C111.123 47.6913 110.611 47.362 110.194 46.9504C109.214 46.0242 108.723 44.707 108.723 42.9987V36.3611Z" fill="#32333D"/>
<path d="M122.031 30.7115C121.676 30.7115 121.332 30.6497 120.998 30.5262C120.685 30.3822 120.404 30.1969 120.153 29.9705C119.924 29.7236 119.736 29.4457 119.59 29.137C119.465 28.8283 119.402 28.4887 119.402 28.1182C119.402 27.7477 119.465 27.4081 119.59 27.0994C119.736 26.7907 119.924 26.5231 120.153 26.2967C120.404 26.0497 120.685 25.8645 120.998 25.741C121.332 25.5969 121.676 25.5249 122.031 25.5249C122.761 25.5249 123.387 25.7822 123.909 26.2967C124.43 26.7907 124.691 27.3978 124.691 28.1182C124.691 28.8385 124.43 29.456 123.909 29.9705C123.387 30.4645 122.761 30.7115 122.031 30.7115ZM119.997 48.0309V32.9034H124.096V48.0309H119.997Z" fill="#32333D"/>
<path d="M134.952 32.4095C136.142 32.4095 137.226 32.6153 138.207 33.0269C139.208 33.418 140.064 33.9737 140.773 34.694C141.503 35.3938 142.066 36.2377 142.463 37.2256C142.88 38.2135 143.089 39.294 143.089 40.4672C143.089 41.6403 142.88 42.7209 142.463 43.7088C142.066 44.6967 141.503 45.5509 140.773 46.2712C140.064 46.971 139.208 47.5267 138.207 47.9383C137.226 48.3294 136.142 48.5249 134.952 48.5249C133.763 48.5249 132.668 48.3294 131.667 47.9383C130.686 47.5267 129.831 46.971 129.1 46.2712C128.391 45.5509 127.828 44.6967 127.411 43.7088C127.014 42.7209 126.816 41.6403 126.816 40.4672C126.816 39.294 127.014 38.2135 127.411 37.2256C127.828 36.2377 128.391 35.3938 129.1 34.694C129.831 33.9737 130.686 33.418 131.667 33.0269C132.668 32.6153 133.763 32.4095 134.952 32.4095ZM134.952 44.7893C135.474 44.7893 135.975 44.6967 136.454 44.5115C136.955 44.3057 137.393 44.0175 137.769 43.6471C138.144 43.2766 138.436 42.8238 138.645 42.2887C138.874 41.7535 138.989 41.1464 138.989 40.4672C138.989 39.788 138.874 39.1808 138.645 38.6457C138.436 38.1106 138.144 37.6578 137.769 37.2873C137.393 36.9168 136.955 36.639 136.454 36.4538C135.975 36.2479 135.474 36.145 134.952 36.145C134.41 36.145 133.899 36.2479 133.419 36.4538C132.939 36.639 132.511 36.9168 132.136 37.2873C131.76 37.6578 131.458 38.1106 131.228 38.6457C131.02 39.1808 130.915 39.788 130.915 40.4672C130.915 41.1464 131.02 41.7535 131.228 42.2887C131.458 42.8238 131.76 43.2766 132.136 43.6471C132.511 44.0175 132.939 44.3057 133.419 44.5115C133.899 44.6967 134.41 44.7893 134.952 44.7893Z" fill="#32333D"/>
<path d="M149.266 34.8793H149.517C149.996 34.1177 150.643 33.5209 151.457 33.0887C152.27 32.6359 153.199 32.4095 154.242 32.4095C155.202 32.4095 156.047 32.5638 156.777 32.8726C157.507 33.1813 158.102 33.6238 158.561 34.2001C159.04 34.7558 159.395 35.435 159.624 36.2377C159.875 37.0198 160 37.8945 160 38.8618V48.0309H155.901V39.3558C155.901 38.2649 155.65 37.4623 155.149 36.9477C154.67 36.4126 153.96 36.145 153.022 36.145C152.458 36.145 151.958 36.2685 151.519 36.5155C151.102 36.7419 150.737 37.0609 150.424 37.4726C150.132 37.8636 149.903 38.337 149.736 38.8927C149.59 39.4278 149.517 40.0041 149.517 40.6215V48.0309H145.417V32.9034H149.266V34.8793Z" fill="#32333D"/>
<path d="M214.049 29.8709C214.049 31.2489 213.59 32.4016 212.671 33.3289C211.744 34.2649 210.608 34.7329 209.265 34.7329C207.913 34.7329 206.778 34.2649 205.859 33.3289C204.94 32.4016 204.481 31.2489 204.481 29.8709C204.481 28.4929 204.94 27.3402 205.859 26.4129C206.778 25.4769 207.913 25.0089 209.265 25.0089C210.617 25.0089 211.752 25.4812 212.671 26.4259C213.59 27.3532 214.049 28.5016 214.049 29.8709ZM205.703 29.8709C205.703 30.9456 206.041 31.8339 206.717 32.5359C207.402 33.2379 208.251 33.5889 209.265 33.5889C210.279 33.5889 211.124 33.2379 211.8 32.5359C212.485 31.8426 212.827 30.9542 212.827 29.8709C212.827 28.7876 212.485 27.8992 211.8 27.2059C211.124 26.5039 210.279 26.1529 209.265 26.1529C208.251 26.1529 207.402 26.5039 206.717 27.2059C206.041 27.9079 205.703 28.7962 205.703 29.8709ZM215.189 28.1549H216.333V29.0389H216.385C216.567 28.7269 216.844 28.4669 217.217 28.2589C217.598 28.0509 217.993 27.9469 218.4 27.9469C219.18 27.9469 219.778 28.1722 220.194 28.6229C220.619 29.0649 220.831 29.6976 220.831 30.5209V34.5249H219.635V30.5989C219.609 29.5589 219.085 29.0389 218.062 29.0389C217.585 29.0389 217.187 29.2339 216.866 29.6239C216.545 30.0052 216.385 30.4646 216.385 31.0019V34.5249H215.189V28.1549ZM225.095 34.7329C224.159 34.7329 223.388 34.4122 222.781 33.7709C222.174 33.1296 221.871 32.3192 221.871 31.3399C221.871 30.3692 222.166 29.5632 222.755 28.9219C223.344 28.2719 224.098 27.9469 225.017 27.9469C225.962 27.9469 226.711 28.2546 227.266 28.8699C227.829 29.4766 228.111 30.3302 228.111 31.4309L228.098 31.5609H223.093C223.11 32.1849 223.318 32.6876 223.717 33.0689C224.116 33.4502 224.592 33.6409 225.147 33.6409C225.91 33.6409 226.508 33.2596 226.941 32.4969L228.007 33.0169C227.721 33.5542 227.322 33.9746 226.811 34.2779C226.308 34.5812 225.736 34.7329 225.095 34.7329ZM223.184 30.5729H226.837C226.802 30.1309 226.62 29.7669 226.291 29.4809C225.97 29.1862 225.537 29.0389 224.991 29.0389C224.54 29.0389 224.15 29.1776 223.821 29.4549C223.5 29.7322 223.288 30.1049 223.184 30.5729ZM235.181 33.6409C235.753 33.6409 236.234 33.4242 236.624 32.9909C237.014 32.5662 237.209 32.0159 237.209 31.3399C237.209 30.6726 237.014 30.1222 236.624 29.6889C236.234 29.2556 235.753 29.0389 235.181 29.0389C234.6 29.0389 234.115 29.2556 233.725 29.6889C233.344 30.1222 233.153 30.6726 233.153 31.3399C233.153 32.0159 233.344 32.5706 233.725 33.0039C234.115 33.4286 234.6 33.6409 235.181 33.6409ZM235.376 34.7329C234.908 34.7329 234.479 34.6332 234.089 34.4339C233.708 34.2346 233.413 33.9702 233.205 33.6409H233.153L233.205 34.5249V37.3329H232.009V28.1549H233.153V29.0389H233.205C233.413 28.7096 233.708 28.4452 234.089 28.2459C234.479 28.0466 234.908 27.9469 235.376 27.9469C236.217 27.9469 236.927 28.2762 237.508 28.9349C238.106 29.6022 238.405 30.4039 238.405 31.3399C238.405 32.2846 238.106 33.0862 237.508 33.7449C236.927 34.4036 236.217 34.7329 235.376 34.7329ZM240.57 25.2169V34.5249H239.374V25.2169H240.57ZM242.834 32.5749C242.834 32.8869 242.964 33.1469 243.224 33.3549C243.493 33.5629 243.805 33.6669 244.16 33.6669C244.663 33.6669 245.109 33.4806 245.499 33.1079C245.898 32.7352 246.097 32.2976 246.097 31.7949C245.725 31.5002 245.205 31.3529 244.537 31.3529C244.052 31.3529 243.645 31.4699 243.315 31.7039C242.995 31.9379 242.834 32.2282 242.834 32.5749ZM244.381 27.9469C245.265 27.9469 245.963 28.1852 246.474 28.6619C246.986 29.1299 247.241 29.7756 247.241 30.5989V34.5249H246.097V33.6409H246.045C245.551 34.3689 244.893 34.7329 244.069 34.7329C243.367 34.7329 242.778 34.5249 242.301 34.1089C241.833 33.6929 241.599 33.1729 241.599 32.5489C241.599 31.8902 241.846 31.3659 242.34 30.9759C242.843 30.5859 243.51 30.3909 244.342 30.3909C245.053 30.3909 245.638 30.5209 246.097 30.7809V30.5079C246.097 30.0919 245.933 29.7409 245.603 29.4549C245.274 29.1602 244.888 29.0129 244.446 29.0129C243.779 29.0129 243.25 29.2946 242.86 29.8579L241.807 29.1949C242.388 28.3629 243.246 27.9469 244.381 27.9469ZM250.985 34.6289C250.474 34.6289 250.045 34.4686 249.698 34.1479C249.352 33.8272 249.174 33.3809 249.165 32.8089V29.2469H248.047V28.1549H249.165V26.2049H250.361V28.1549H253.221V27.2319C253.221 26.5992 253.421 26.0879 253.819 25.6979C254.227 25.3079 254.747 25.1129 255.379 25.1129C255.813 25.1129 256.168 25.1866 256.445 25.3339L256.12 26.3869C255.912 26.2829 255.678 26.2309 255.418 26.2309C255.124 26.2309 254.881 26.3349 254.69 26.5429C254.508 26.7422 254.417 27.0109 254.417 27.3489V28.1549H256.081V29.2469H254.417V34.5249H253.221V29.2469H250.361V32.4579C250.361 32.8306 250.435 33.0992 250.582 33.2639C250.738 33.4286 250.92 33.5109 251.128 33.5109C251.328 33.5109 251.518 33.4719 251.7 33.3939L252.077 34.4599C251.757 34.5726 251.393 34.6289 250.985 34.6289ZM256.466 31.3399C256.466 30.3606 256.773 29.5502 257.389 28.9089C258.013 28.2676 258.797 27.9469 259.742 27.9469C260.686 27.9469 261.466 28.2676 262.082 28.9089C262.706 29.5502 263.018 30.3606 263.018 31.3399C263.018 32.3279 262.706 33.1382 262.082 33.7709C261.466 34.4122 260.686 34.7329 259.742 34.7329C258.797 34.7329 258.013 34.4122 257.389 33.7709C256.773 33.1296 256.466 32.3192 256.466 31.3399ZM257.662 31.3399C257.662 32.0246 257.861 32.5792 258.26 33.0039C258.658 33.4286 259.152 33.6409 259.742 33.6409C260.331 33.6409 260.825 33.4286 261.224 33.0039C261.622 32.5792 261.822 32.0246 261.822 31.3399C261.822 30.6639 261.622 30.1136 261.224 29.6889C260.816 29.2556 260.322 29.0389 259.742 29.0389C259.161 29.0389 258.667 29.2556 258.26 29.6889C257.861 30.1136 257.662 30.6639 257.662 31.3399ZM265.173 34.5249H263.977V28.1549H265.121V29.1949H265.173C265.294 28.8569 265.541 28.5709 265.914 28.3369C266.295 28.0942 266.668 27.9729 267.032 27.9729C267.379 27.9729 267.673 28.0249 267.916 28.1289L267.552 29.2859C267.405 29.2252 267.171 29.1949 266.85 29.1949C266.399 29.1949 266.005 29.3769 265.667 29.7409C265.338 30.1049 265.173 30.5296 265.173 31.0149V34.5249ZM269.896 34.5249H268.7V28.1549H269.844V29.0389H269.896C270.078 28.7269 270.355 28.4669 270.728 28.2589C271.109 28.0509 271.486 27.9469 271.859 27.9469C272.327 27.9469 272.738 28.0552 273.094 28.2719C273.449 28.4886 273.709 28.7876 273.874 29.1689C274.402 28.3542 275.135 27.9469 276.071 27.9469C276.807 27.9469 277.375 28.1722 277.774 28.6229C278.172 29.0736 278.372 29.7149 278.372 30.5469V34.5249H277.176V30.7289C277.176 30.1309 277.067 29.7019 276.851 29.4419C276.634 29.1732 276.27 29.0389 275.759 29.0389C275.299 29.0389 274.914 29.2339 274.602 29.6239C274.29 30.0139 274.134 30.4732 274.134 31.0019V34.5249H272.938V30.7289C272.938 30.1309 272.829 29.7019 272.613 29.4419C272.396 29.1732 272.032 29.0389 271.521 29.0389C271.061 29.0389 270.676 29.2339 270.364 29.6239C270.052 30.0139 269.896 30.4732 269.896 31.0019V34.5249ZM283.822 34.5249H282.626V28.1549H283.77V29.0389H283.822C284.004 28.7269 284.282 28.4669 284.654 28.2589C285.036 28.0509 285.413 27.9469 285.785 27.9469C286.253 27.9469 286.665 28.0552 287.02 28.2719C287.376 28.4886 287.636 28.7876 287.8 29.1689C288.329 28.3542 289.061 27.9469 289.997 27.9469C290.734 27.9469 291.302 28.1722 291.7 28.6229C292.099 29.0736 292.298 29.7149 292.298 30.5469V34.5249H291.102V30.7289C291.102 30.1309 290.994 29.7019 290.777 29.4419C290.561 29.1732 290.197 29.0389 289.685 29.0389C289.226 29.0389 288.84 29.2339 288.528 29.6239C288.216 30.0139 288.06 30.4732 288.06 31.0019V34.5249H286.864V30.7289C286.864 30.1309 286.756 29.7019 286.539 29.4419C286.323 29.1732 285.959 29.0389 285.447 29.0389C284.988 29.0389 284.602 29.2339 284.29 29.6239C283.978 30.0139 283.822 30.4732 283.822 31.0019V34.5249ZM296.557 34.7329C295.621 34.7329 294.849 34.4122 294.243 33.7709C293.636 33.1296 293.333 32.3192 293.333 31.3399C293.333 30.3692 293.627 29.5632 294.217 28.9219C294.806 28.2719 295.56 27.9469 296.479 27.9469C297.423 27.9469 298.173 28.2546 298.728 28.8699C299.291 29.4766 299.573 30.3302 299.573 31.4309L299.56 31.5609H294.555C294.572 32.1849 294.78 32.6876 295.179 33.0689C295.577 33.4502 296.054 33.6409 296.609 33.6409C297.371 33.6409 297.969 33.2596 298.403 32.4969L299.469 33.0169C299.183 33.5542 298.784 33.9746 298.273 34.2779C297.77 34.5812 297.198 34.7329 296.557 34.7329ZM294.646 30.5729H298.299C298.264 30.1309 298.082 29.7669 297.753 29.4809C297.432 29.1862 296.999 29.0389 296.453 29.0389C296.002 29.0389 295.612 29.1776 295.283 29.4549C294.962 29.7322 294.75 30.1049 294.646 30.5729ZM303.59 34.7329C302.654 34.7329 301.883 34.4122 301.276 33.7709C300.669 33.1296 300.366 32.3192 300.366 31.3399C300.366 30.3692 300.661 29.5632 301.25 28.9219C301.839 28.2719 302.593 27.9469 303.512 27.9469C304.457 27.9469 305.206 28.2546 305.761 28.8699C306.324 29.4766 306.606 30.3302 306.606 31.4309L306.593 31.5609H301.588C301.605 32.1849 301.813 32.6876 302.212 33.0689C302.611 33.4502 303.087 33.6409 303.642 33.6409C304.405 33.6409 305.003 33.2596 305.436 32.4969L306.502 33.0169C306.216 33.5542 305.817 33.9746 305.306 34.2779C304.803 34.5812 304.231 34.7329 303.59 34.7329ZM301.679 30.5729H305.332C305.297 30.1309 305.115 29.7669 304.786 29.4809C304.465 29.1862 304.032 29.0389 303.486 29.0389C303.035 29.0389 302.645 29.1776 302.316 29.4549C301.995 29.7322 301.783 30.1049 301.679 30.5729ZM310.031 34.6289C309.511 34.6289 309.078 34.4686 308.731 34.1479C308.393 33.8272 308.22 33.3809 308.211 32.8089V29.2469H307.093V28.1549H308.211V26.2049H309.407V28.1549H310.967V29.2469H309.407V32.4189C309.407 32.8436 309.49 33.1339 309.654 33.2899C309.819 33.4372 310.005 33.5109 310.213 33.5109C310.309 33.5109 310.4 33.5022 310.486 33.4849C310.582 33.4589 310.668 33.4286 310.746 33.3939L311.123 34.4599C310.811 34.5726 310.447 34.6289 310.031 34.6289ZM313.715 25.9579C313.715 26.1919 313.633 26.3912 313.468 26.5559C313.304 26.7206 313.104 26.8029 312.87 26.8029C312.636 26.8029 312.437 26.7206 312.272 26.5559C312.108 26.3912 312.025 26.1919 312.025 25.9579C312.025 25.7239 312.108 25.5246 312.272 25.3599C312.437 25.1952 312.636 25.1129 312.87 25.1129C313.104 25.1129 313.304 25.1952 313.468 25.3599C313.633 25.5246 313.715 25.7239 313.715 25.9579ZM313.468 28.1549V34.5249H312.272V28.1549H313.468ZM315.025 28.1549H316.169V29.0389H316.221C316.403 28.7269 316.68 28.4669 317.053 28.2589C317.434 28.0509 317.829 27.9469 318.236 27.9469C319.016 27.9469 319.614 28.1722 320.03 28.6229C320.455 29.0649 320.667 29.6976 320.667 30.5209V34.5249H319.471V30.5989C319.445 29.5589 318.921 29.0389 317.898 29.0389C317.421 29.0389 317.023 29.2339 316.702 29.6239C316.381 30.0052 316.221 30.4646 316.221 31.0019V34.5249H315.025V28.1549ZM324.867 33.6409C325.457 33.6409 325.938 33.4286 326.31 33.0039C326.7 32.5792 326.895 32.0246 326.895 31.3399C326.895 30.6726 326.7 30.1222 326.31 29.6889C325.929 29.2556 325.448 29.0389 324.867 29.0389C324.295 29.0389 323.814 29.2556 323.424 29.6889C323.034 30.1222 322.839 30.6726 322.839 31.3399C322.839 32.0159 323.034 32.5662 323.424 32.9909C323.814 33.4242 324.295 33.6409 324.867 33.6409ZM324.828 37.5409C324.473 37.5409 324.139 37.4932 323.827 37.3979C323.515 37.3112 323.229 37.1856 322.969 37.0209C322.718 36.8562 322.501 36.6612 322.319 36.4359C322.137 36.2106 321.999 35.9592 321.903 35.6819L323.034 35.2139C323.164 35.5866 323.39 35.8856 323.71 36.1109C324.031 36.3362 324.404 36.4489 324.828 36.4489C325.478 36.4489 325.985 36.2539 326.349 35.8639C326.713 35.4739 326.895 34.9366 326.895 34.2519V33.6409H326.843C326.618 33.9789 326.31 34.2476 325.92 34.4469C325.539 34.6376 325.123 34.7329 324.672 34.7329C323.84 34.7329 323.125 34.4079 322.527 33.7579C321.938 33.0906 321.643 32.2846 321.643 31.3399C321.643 30.3952 321.938 29.5936 322.527 28.9349C323.125 28.2762 323.84 27.9469 324.672 27.9469C325.123 27.9469 325.539 28.0466 325.92 28.2459C326.31 28.4366 326.618 28.7009 326.843 29.0389H326.895V28.1549H328.039V34.2519C328.039 35.2746 327.749 36.0762 327.168 36.6569C326.579 37.2462 325.799 37.5409 324.828 37.5409ZM333.225 32.5749C333.225 32.8869 333.355 33.1469 333.615 33.3549C333.884 33.5629 334.196 33.6669 334.551 33.6669C335.054 33.6669 335.5 33.4806 335.89 33.1079C336.289 32.7352 336.488 32.2976 336.488 31.7949C336.115 31.5002 335.595 31.3529 334.928 31.3529C334.443 31.3529 334.035 31.4699 333.706 31.7039C333.385 31.9379 333.225 32.2282 333.225 32.5749ZM334.772 27.9469C335.656 27.9469 336.354 28.1852 336.865 28.6619C337.376 29.1299 337.632 29.7756 337.632 30.5989V34.5249H336.488V33.6409H336.436C335.942 34.3689 335.283 34.7329 334.46 34.7329C333.758 34.7329 333.169 34.5249 332.692 34.1089C332.224 33.6929 331.99 33.1729 331.99 32.5489C331.99 31.8902 332.237 31.3659 332.731 30.9759C333.234 30.5859 333.901 30.3909 334.733 30.3909C335.444 30.3909 336.029 30.5209 336.488 30.7809V30.5079C336.488 30.0919 336.323 29.7409 335.994 29.4549C335.665 29.1602 335.279 29.0129 334.837 29.0129C334.17 29.0129 333.641 29.2946 333.251 29.8579L332.198 29.1949C332.779 28.3629 333.637 27.9469 334.772 27.9469ZM340.177 25.2169V34.5249H338.981V25.2169H340.177ZM342.83 25.2169V34.5249H341.634V25.2169H342.83ZM210.422 51.1549L206.431 60.3329H205.196L206.678 57.1219L204.052 51.1549H205.352L207.25 55.7309H207.276L209.122 51.1549H210.422ZM210.585 54.3399C210.585 53.3606 210.892 52.5502 211.508 51.9089C212.132 51.2676 212.916 50.9469 213.861 50.9469C214.805 50.9469 215.585 51.2676 216.201 51.9089C216.825 52.5502 217.137 53.3606 217.137 54.3399C217.137 55.3279 216.825 56.1382 216.201 56.7709C215.585 57.4122 214.805 57.7329 213.861 57.7329C212.916 57.7329 212.132 57.4122 211.508 56.7709C210.892 56.1296 210.585 55.3192 210.585 54.3399ZM211.781 54.3399C211.781 55.0246 211.98 55.5792 212.379 56.0039C212.777 56.4286 213.271 56.6409 213.861 56.6409C214.45 56.6409 214.944 56.4286 215.343 56.0039C215.741 55.5792 215.941 55.0246 215.941 54.3399C215.941 53.6639 215.741 53.1136 215.343 52.6889C214.935 52.2556 214.441 52.0389 213.861 52.0389C213.28 52.0389 212.786 52.2556 212.379 52.6889C211.98 53.1136 211.781 53.6639 211.781 54.3399ZM223.75 57.5249H222.606V56.6409H222.554C222.372 56.9529 222.09 57.2129 221.709 57.4209C221.336 57.6289 220.946 57.7329 220.539 57.7329C219.759 57.7329 219.156 57.5119 218.732 57.0699C218.316 56.6192 218.108 55.9822 218.108 55.1589V51.1549H219.304V55.0809C219.33 56.1209 219.854 56.6409 220.877 56.6409C221.353 56.6409 221.752 56.4502 222.073 56.0689C222.393 55.6789 222.554 55.2152 222.554 54.6779V51.1549H223.75V57.5249ZM226.402 57.5249H225.206V51.1549H226.35V52.1949H226.402C226.523 51.8569 226.77 51.5709 227.143 51.3369C227.524 51.0942 227.897 50.9729 228.261 50.9729C228.607 50.9729 228.902 51.0249 229.145 51.1289L228.781 52.2859C228.633 52.2252 228.399 52.1949 228.079 52.1949C227.628 52.1949 227.234 52.3769 226.896 52.7409C226.566 53.1049 226.402 53.5296 226.402 54.0149V57.5249ZM233.981 57.5249H232.785V51.1549H233.929V52.1949H233.981C234.102 51.8569 234.349 51.5709 234.722 51.3369C235.103 51.0942 235.476 50.9729 235.84 50.9729C236.186 50.9729 236.481 51.0249 236.724 51.1289L236.36 52.2859C236.212 52.2252 235.978 52.1949 235.658 52.1949C235.207 52.1949 234.813 52.3769 234.475 52.7409C234.145 53.1049 233.981 53.5296 233.981 54.0149V57.5249ZM239.974 57.7329C239.038 57.7329 238.266 57.4122 237.66 56.7709C237.053 56.1296 236.75 55.3192 236.75 54.3399C236.75 53.3692 237.044 52.5632 237.634 51.9219C238.223 51.2719 238.977 50.9469 239.896 50.9469C240.84 50.9469 241.59 51.2546 242.145 51.8699C242.708 52.4766 242.99 53.3302 242.99 54.4309L242.977 54.5609H237.972C237.989 55.1849 238.197 55.6876 238.596 56.0689C238.994 56.4502 239.471 56.6409 240.026 56.6409C240.788 56.6409 241.386 56.2596 241.82 55.4969L242.886 56.0169C242.6 56.5542 242.201 56.9746 241.69 57.2779C241.187 57.5812 240.615 57.7329 239.974 57.7329ZM238.063 53.5729H241.716C241.681 53.1309 241.499 52.7669 241.17 52.4809C240.849 52.1862 240.416 52.0389 239.87 52.0389C239.419 52.0389 239.029 52.1776 238.7 52.4549C238.379 52.7322 238.167 53.1049 238.063 53.5729ZM245.279 48.2169V57.5249H244.083V48.2169H245.279ZM246.309 54.3399C246.309 53.3606 246.617 52.5502 247.232 51.9089C247.856 51.2676 248.641 50.9469 249.585 50.9469C250.53 50.9469 251.31 51.2676 251.925 51.9089C252.549 52.5502 252.861 53.3606 252.861 54.3399C252.861 55.3279 252.549 56.1382 251.925 56.7709C251.31 57.4122 250.53 57.7329 249.585 57.7329C248.641 57.7329 247.856 57.4122 247.232 56.7709C246.617 56.1296 246.309 55.3192 246.309 54.3399ZM247.505 54.3399C247.505 55.0246 247.705 55.5792 248.103 56.0039C248.502 56.4286 248.996 56.6409 249.585 56.6409C250.175 56.6409 250.669 56.4286 251.067 56.0039C251.466 55.5792 251.665 55.0246 251.665 54.3399C251.665 53.6639 251.466 53.1136 251.067 52.6889C250.66 52.2556 250.166 52.0389 249.585 52.0389C249.005 52.0389 248.511 52.2556 248.103 52.6889C247.705 53.1136 247.505 53.6639 247.505 54.3399ZM256.86 57.7329C255.915 57.7329 255.131 57.4122 254.507 56.7709C253.891 56.1122 253.584 55.3019 253.584 54.3399C253.584 53.3606 253.891 52.5502 254.507 51.9089C255.131 51.2676 255.915 50.9469 256.86 50.9469C257.51 50.9469 258.077 51.1116 258.563 51.4409C259.048 51.7616 259.412 52.2079 259.655 52.7799L258.563 53.2349C258.225 52.4376 257.631 52.0389 256.782 52.0389C256.236 52.0389 255.763 52.2599 255.365 52.7019C254.975 53.1439 254.78 53.6899 254.78 54.3399C254.78 54.9899 254.975 55.5359 255.365 55.9779C255.763 56.4199 256.236 56.6409 256.782 56.6409C257.657 56.6409 258.272 56.2422 258.628 55.4449L259.694 55.8999C259.46 56.4719 259.091 56.9226 258.589 57.2519C258.095 57.5726 257.518 57.7329 256.86 57.7329ZM261.547 55.5749C261.547 55.8869 261.677 56.1469 261.937 56.3549C262.206 56.5629 262.518 56.6669 262.873 56.6669C263.376 56.6669 263.822 56.4806 264.212 56.1079C264.611 55.7352 264.81 55.2976 264.81 54.7949C264.438 54.5002 263.918 54.3529 263.25 54.3529C262.765 54.3529 262.358 54.4699 262.028 54.7039C261.708 54.9379 261.547 55.2282 261.547 55.5749ZM263.094 50.9469C263.978 50.9469 264.676 51.1852 265.187 51.6619C265.699 52.1299 265.954 52.7756 265.954 53.5989V57.5249H264.81V56.6409H264.758C264.264 57.3689 263.606 57.7329 262.782 57.7329C262.08 57.7329 261.491 57.5249 261.014 57.1089C260.546 56.6929 260.312 56.1729 260.312 55.5489C260.312 54.8902 260.559 54.3659 261.053 53.9759C261.556 53.5859 262.223 53.3909 263.055 53.3909C263.766 53.3909 264.351 53.5209 264.81 53.7809V53.5079C264.81 53.0919 264.646 52.7409 264.316 52.4549C263.987 52.1602 263.601 52.0129 263.159 52.0129C262.492 52.0129 261.963 52.2946 261.573 52.8579L260.52 52.1949C261.101 51.3629 261.959 50.9469 263.094 50.9469ZM269.698 57.6289C269.178 57.6289 268.745 57.4686 268.398 57.1479C268.06 56.8272 267.887 56.3809 267.878 55.8089V52.2469H266.76V51.1549H267.878V49.2049H269.074V51.1549H270.634V52.2469H269.074V55.4189C269.074 55.8436 269.157 56.1339 269.321 56.2899C269.486 56.4372 269.672 56.5109 269.88 56.5109C269.976 56.5109 270.067 56.5022 270.153 56.4849C270.249 56.4589 270.335 56.4286 270.413 56.3939L270.79 57.4599C270.478 57.5726 270.114 57.6289 269.698 57.6289ZM273.382 48.9579C273.382 49.1919 273.3 49.3912 273.135 49.5559C272.971 49.7206 272.771 49.8029 272.537 49.8029C272.303 49.8029 272.104 49.7206 271.939 49.5559C271.775 49.3912 271.692 49.1919 271.692 48.9579C271.692 48.7239 271.775 48.5246 271.939 48.3599C272.104 48.1952 272.303 48.1129 272.537 48.1129C272.771 48.1129 272.971 48.1952 273.135 48.3599C273.3 48.5246 273.382 48.7239 273.382 48.9579ZM273.135 51.1549V57.5249H271.939V51.1549H273.135ZM274.264 54.3399C274.264 53.3606 274.572 52.5502 275.187 51.9089C275.811 51.2676 276.596 50.9469 277.54 50.9469C278.485 50.9469 279.265 51.2676 279.88 51.9089C280.504 52.5502 280.816 53.3606 280.816 54.3399C280.816 55.3279 280.504 56.1382 279.88 56.7709C279.265 57.4122 278.485 57.7329 277.54 57.7329C276.596 57.7329 275.811 57.4122 275.187 56.7709C274.572 56.1296 274.264 55.3192 274.264 54.3399ZM275.46 54.3399C275.46 55.0246 275.66 55.5792 276.058 56.0039C276.457 56.4286 276.951 56.6409 277.54 56.6409C278.13 56.6409 278.624 56.4286 279.022 56.0039C279.421 55.5792 279.62 55.0246 279.62 54.3399C279.62 53.6639 279.421 53.1136 279.022 52.6889C278.615 52.2556 278.121 52.0389 277.54 52.0389C276.96 52.0389 276.466 52.2556 276.058 52.6889C275.66 53.1136 275.46 53.6639 275.46 54.3399ZM281.776 51.1549H282.92V52.0389H282.972C283.154 51.7269 283.431 51.4669 283.804 51.2589C284.185 51.0509 284.58 50.9469 284.987 50.9469C285.767 50.9469 286.365 51.1722 286.781 51.6229C287.206 52.0649 287.418 52.6976 287.418 53.5209V57.5249H286.222V53.5989C286.196 52.5589 285.672 52.0389 284.649 52.0389C284.172 52.0389 283.774 52.2339 283.453 52.6239C283.132 53.0052 282.972 53.4646 282.972 54.0019V57.5249H281.776V51.1549ZM291.678 51.1549H292.822V52.0389H292.874C293.056 51.7269 293.334 51.4669 293.706 51.2589C294.088 51.0509 294.482 50.9469 294.889 50.9469C295.669 50.9469 296.267 51.1722 296.683 51.6229C297.108 52.0649 297.32 52.6976 297.32 53.5209V57.5249H296.124V53.5989C296.098 52.5589 295.574 52.0389 294.551 52.0389C294.075 52.0389 293.676 52.2339 293.355 52.6239C293.035 53.0052 292.874 53.4646 292.874 54.0019V57.5249H291.678V51.1549ZM301.584 57.7329C300.648 57.7329 299.877 57.4122 299.27 56.7709C298.663 56.1296 298.36 55.3192 298.36 54.3399C298.36 53.3692 298.655 52.5632 299.244 51.9219C299.833 51.2719 300.587 50.9469 301.506 50.9469C302.451 50.9469 303.2 51.2546 303.755 51.8699C304.318 52.4766 304.6 53.3302 304.6 54.4309L304.587 54.5609H299.582C299.599 55.1849 299.807 55.6876 300.206 56.0689C300.605 56.4502 301.081 56.6409 301.636 56.6409C302.399 56.6409 302.997 56.2596 303.43 55.4969L304.496 56.0169C304.21 56.5542 303.811 56.9746 303.3 57.2779C302.797 57.5812 302.225 57.7329 301.584 57.7329ZM299.673 53.5729H303.326C303.291 53.1309 303.109 52.7669 302.78 52.4809C302.459 52.1862 302.026 52.0389 301.48 52.0389C301.029 52.0389 300.639 52.1776 300.31 52.4549C299.989 52.7322 299.777 53.1049 299.673 53.5729ZM308.617 57.7329C307.681 57.7329 306.91 57.4122 306.303 56.7709C305.697 56.1296 305.393 55.3192 305.393 54.3399C305.393 53.3692 305.688 52.5632 306.277 51.9219C306.867 51.2719 307.621 50.9469 308.539 50.9469C309.484 50.9469 310.234 51.2546 310.788 51.8699C311.352 52.4766 311.633 53.3302 311.633 54.4309L311.62 54.5609H306.615C306.633 55.1849 306.841 55.6876 307.239 56.0689C307.638 56.4502 308.115 56.6409 308.669 56.6409C309.432 56.6409 310.03 56.2596 310.463 55.4969L311.529 56.0169C311.243 56.5542 310.845 56.9746 310.333 57.2779C309.831 57.5812 309.259 57.7329 308.617 57.7329ZM306.706 53.5729H310.359C310.325 53.1309 310.143 52.7669 309.813 52.4809C309.493 52.1862 309.059 52.0389 308.513 52.0389C308.063 52.0389 307.673 52.1776 307.343 52.4549C307.023 52.7322 306.81 53.1049 306.706 53.5729ZM315.651 56.6409C316.24 56.6409 316.721 56.4286 317.094 56.0039C317.484 55.5792 317.679 55.0246 317.679 54.3399C317.679 53.6726 317.484 53.1222 317.094 52.6889C316.712 52.2556 316.231 52.0389 315.651 52.0389C315.079 52.0389 314.598 52.2556 314.208 52.6889C313.818 53.1222 313.623 53.6726 313.623 54.3399C313.623 55.0159 313.818 55.5662 314.208 55.9909C314.598 56.4242 315.079 56.6409 315.651 56.6409ZM315.456 57.7329C314.624 57.7329 313.909 57.4036 313.311 56.7449C312.721 56.0776 312.427 55.2759 312.427 54.3399C312.427 53.4039 312.721 52.6022 313.311 51.9349C313.909 51.2762 314.624 50.9469 315.456 50.9469C315.924 50.9469 316.348 51.0466 316.73 51.2459C317.12 51.4452 317.419 51.7096 317.627 52.0389H317.679L317.627 51.1549V48.2169H318.823V57.5249H317.679V56.6409H317.627C317.419 56.9702 317.12 57.2346 316.73 57.4339C316.348 57.6332 315.924 57.7329 315.456 57.7329ZM325.092 55.7569C325.092 56.3116 324.85 56.7796 324.364 57.1609C323.879 57.5422 323.268 57.7329 322.531 57.7329C321.89 57.7329 321.327 57.5682 320.841 57.2389C320.356 56.9009 320.009 56.4589 319.801 55.9129L320.867 55.4579C321.023 55.8392 321.249 56.1382 321.543 56.3549C321.847 56.5629 322.176 56.6669 322.531 56.6669C322.913 56.6669 323.229 56.5846 323.48 56.4199C323.74 56.2552 323.87 56.0602 323.87 55.8349C323.87 55.4276 323.558 55.1286 322.934 54.9379L321.842 54.6649C320.603 54.3529 319.983 53.7549 319.983 52.8709C319.983 52.2902 320.217 51.8266 320.685 51.4799C321.162 51.1246 321.769 50.9469 322.505 50.9469C323.069 50.9469 323.576 51.0812 324.026 51.3499C324.486 51.6186 324.806 51.9782 324.988 52.4289L323.922 52.8709C323.801 52.6022 323.602 52.3942 323.324 52.2469C323.056 52.0909 322.752 52.0129 322.414 52.0129C322.102 52.0129 321.821 52.0909 321.569 52.2469C321.327 52.4029 321.205 52.5936 321.205 52.8189C321.205 53.1829 321.548 53.4429 322.232 53.5989L323.194 53.8459C324.46 54.1579 325.092 54.7949 325.092 55.7569Z" fill="#5B6574"/>
<line x1="182.5" y1="7.5249" x2="182.5" y2="78.5249" stroke="#BFCCDF"/>
<defs>
<linearGradient id="paint0_linear_1502_9" x1="51" y1="76.5249" x2="131" y2="76.5249" gradientUnits="userSpaceOnUse">
<stop stop-color="#95DC78"/>
<stop offset="1" stop-color="#E2F6DA"/>
</linearGradient>
<linearGradient id="paint1_linear_1502_9" x1="58" y1="25.5249" x2="131" y2="25.5249" gradientUnits="userSpaceOnUse">
<stop stop-color="#FFEBDC"/>
<stop offset="1" stop-color="#FFBB8A"/>
</linearGradient>
</defs>
</svg>
